<svg height="512pt" viewBox="0 0 512 512" width="512pt" xmlns="http://www.w3.org/2000/svg"><path d="m503.464844 328.535156v166.398438c0 4.710937-3.820313 8.53125-8.53125 8.53125h-119.46875v-179.199219h17.070312v4.269531l3.921875-4.269531h103.085938zm0 0" fill="#00838f"/><path d="m230.816406 217.601562h-86.183594c1.058594-23.28125 19.8125-41.84375 43.101563-42.667968 23.28125.832031 42.023437 19.394531 43.082031 42.667968zm0 0" fill="#00bcd4"/><path d="m51.199219 230.398438h42.667969c4.710937 0 8.53125 3.820312 8.53125 8.535156v42.667968h-59.730469v-42.667968c0-4.714844 3.820312-8.535156 8.53125-8.535156zm0 0" fill="#285680"/><path d="m307.199219 59.734375h51.199219c4.714843 0 8.535156 3.820313 8.535156 8.53125v76.800781c0 4.714844-3.820313 8.535156-8.535156 8.535156h-51.199219c-4.710938 0-8.53125-3.820312-8.53125-8.535156v-76.800781c0-4.710937 3.820312-8.53125 8.53125-8.53125zm0 0" fill="#6a1b9a"/><path d="m307.199219 59.734375h25.601562c4.710938 0 8.53125 3.820313 8.53125 8.53125v76.800781c0 4.714844-3.820312 8.535156-8.53125 8.535156h-25.601562c-4.710938 0-8.53125-3.820312-8.53125-8.535156v-76.800781c0-4.710937 3.820312-8.53125 8.53125-8.53125zm0 0" fill="#673ab7"/><path d="m298.667969 145.066406h68.265625c4.710937 0 8.53125 3.820313 8.53125 8.535156v119.464844c0 4.714844-3.820313 8.535156-8.53125 8.535156h-68.265625c-4.714844 0-8.535157-3.820312-8.535157-8.535156v-119.464844c0-4.714843 3.820313-8.535156 8.535157-8.535156zm0 0" fill="#4527a0"/><path d="m298.667969 145.066406h42.664062c4.714844 0 8.535157 3.820313 8.535157 8.535156v119.464844c0 4.714844-3.820313 8.535156-8.535157 8.535156h-42.664062c-4.714844 0-8.535157-3.820312-8.535157-8.535156v-119.464844c0-4.714843 3.820313-8.535156 8.535157-8.535156zm0 0" fill="#673ab7"/><path d="m17.066406 264.535156h153.601563v238.929688h-153.601563c-4.710937 0-8.53125-3.820313-8.53125-8.53125v-221.867188c0-4.710937 3.820313-8.53125 8.53125-8.53125zm0 0" fill="#00838f"/><path d="m482.132812 328.535156v166.398438c0 4.710937-3.820312 8.53125-8.53125 8.53125h-119.46875v-179.199219h17.066407v4.269531l3.925781-4.269531h103.082031zm0 0" fill="#00bcd4"/><path d="m18.132812 264.535156h94.394532v238.929688h-94.394532c-4.710937 0-8.53125-3.820313-8.53125-8.53125v-221.867188c0-4.710937 3.820313-8.53125 8.53125-8.53125zm0 0" fill="#00bcd4"/><path d="m231.058594 503.464844c4.527344-.1875 8.046875-4.003906 7.875-8.53125v-273.066406c0-4.714844-3.820313-8.535157-8.535156-8.535157h-85.332032c-4.710937 0-8.53125 3.820313-8.53125 8.535157v281.597656" fill="#1566c0"/><path d="m207.429688 503.464844c3.257812 0 5.902343-3.820313 5.902343-8.53125v-273.066406c0-4.710938-2.867187-8.535157-6.398437-8.535157h-64c-3.53125 0-6.398438 3.824219-6.398438 8.535157v281.597656" fill="#2296f3"/><path d="m392.535156 273.066406v230.398438h-110.933594c-4.714843 0-8.535156-3.820313-8.535156-8.53125v-221.867188c0-4.710937 3.820313-8.53125 8.535156-8.53125h102.398438c4.710938 0 8.535156 3.820313 8.535156 8.53125zm0 0" fill="#6a1b9a"/><path d="m366.933594 273.066406v230.398438h-87.160156c-4.167969-.574219-7.132813-4.34375-6.707032-8.53125v-221.867188c-.425781-4.1875 2.539063-7.957031 6.707032-8.53125h80.453124c4.167969.574219 7.132813 4.34375 6.707032 8.53125zm0 0" fill="#9d27b0"/><path d="m327.535156 24.832031-31.324218 36.386719c-1.089844 1.261719-1.339844 3.042969-.648438 4.558594.695312 1.511718 2.207031 2.484375 3.871094 2.488281h67.117187c1.644531.003906 3.144531-.9375 3.855469-2.421875s.503906-3.242188-.527344-4.523438l-29.226562-36.273437c-1.589844-1.976563-3.976563-3.140625-6.507813-3.183594-2.535156-.039062-4.957031 1.046875-6.609375 2.96875zm0 0" fill="#9d27b0"/><path d="m170.667969 81.066406c0 16.496094-13.375 29.867188-29.867188 29.867188h-98.132812c-18.851563 0-34.132813-15.28125-34.132813-34.132813 0-18.851562 15.28125-34.132812 34.132813-34.132812 2.941406.007812 5.867187.410156 8.703125 1.195312 1.191406-15.09375 11.15625-28.066406 25.429687-33.109375 4.105469-1.484375 8.4375-2.234375 12.800781-2.21875 10.1875-.015625 19.960938 4.027344 27.167969 11.230469 7.203125 7.203125 11.242188 16.980469 11.230469 27.167969.03125 2.320312-.199219 4.640625-.683594 6.910156.015625.234375-.015625.464844-.085937.683594.242187-.148438.5-.261719.769531-.339844 3.96875-2 8.355469-3.023438 12.800781-2.988281 16.492188 0 29.867188 13.371093 29.867188 29.867187zm0 0" fill="#607d8b"/><path d="m145.066406 81.066406c0 16.496094-13.371094 29.867188-29.867187 29.867188h-72.53125c-18.851563 0-34.132813-15.28125-34.132813-34.132813 0-18.851562 15.28125-34.132812 34.132813-34.132812 2.941406.007812 5.867187.410156 8.703125 1.195312 1.191406-15.09375 11.15625-28.066406 25.429687-33.109375 15.355469 5.390625 25.625 19.902344 25.597657 36.179688.003906 2.550781-.253907 5.09375-.765626 7.59375 7.996094-4.183594 17.476563-4.433594 25.683594-.683594.25.0625.484375.179688.683594.34375 10.417969 4.894531 17.070312 15.367188 17.066406 26.878906zm0 0" fill="#cfd8dc"/><path d="m503.464844 46.933594c0 21.207031-17.191406 38.398437-38.398438 38.398437-21.207031 0-38.398437-17.191406-38.398437-38.398437 0-21.207032 17.191406-38.398438 38.398437-38.398438 21.207032 0 38.398438 17.191406 38.398438 38.398438zm0 0" fill="#fdd834"/><path d="m324.265625 452.265625h17.066406c4.714844 0 8.535157 3.820313 8.535157 8.535156v42.664063h-34.132813v-42.664063c0-4.714843 3.820313-8.535156 8.53125-8.535156zm0 0" fill="#4527a0"/><path d="m503.464844 328.535156h-110.929688l3.921875-4.269531 23.128907-25c2.914062-3.066406 6.945312-4.820313 11.175781-4.867187h34.390625c4.292968.03125 8.378906 1.859374 11.261718 5.035156l23.128907 24.832031zm0 0" fill="#285680"/><path d="m17.066406 512h119.46875c1.171875-.003906 2.335938-.25 3.410156-.726562 1.449219.460937 2.953126.703124 4.472657.726562h86.640625c9.234375-.195312 16.574218-7.828125 16.40625-17.066406v-273.066406c-.019532-6.214844-3.429688-11.925782-8.890625-14.890626-3.402344-22.136718-20.324219-39.761718-42.308594-44.058593v-43.453125c0-4.710938-3.820313-8.53125-8.53125-8.53125-4.714844 0-8.535156 3.820312-8.535156 8.53125v43.453125c-21.980469 4.296875-38.90625 21.921875-42.308594 44.058593-5.460937 2.964844-8.867187 8.675782-8.890625 14.890626v34.132812h-17.066406v-17.066406c0-9.425782-7.640625-17.066406-17.066406-17.066406h-42.667969c-9.425781 0-17.066407 7.640624-17.066407 17.066406v17.066406h-17.066406c-9.425781 0-17.066406 7.640625-17.066406 17.066406v221.867188c0 9.425781 7.640625 17.066406 17.066406 17.066406zm128-17.066406v-273.066406h85.332032l.660156 273.066406zm42.667969-315.734375c15.363281.40625 28.664063 10.792969 32.785156 25.601562h-65.570312c4.117187-14.808593 17.417969-25.195312 32.785156-25.601562zm-136.535156 59.734375h42.667969v17.066406h-42.667969zm-34.132813 34.132812h110.933594v221.867188h-110.933594zm0 0"/><path d="m281.601562 512h213.332032c9.425781 0 17.066406-7.640625 17.066406-17.066406v-170.667969c0-.167969-.085938-.316406-.09375-.476563-.046875-.804687-.207031-1.597656-.476562-2.355468-.078126-.222656-.121094-.445313-.214844-.65625-.371094-.847656-.875-1.632813-1.492188-2.320313l-27.035156-29.109375c-4.53125-4.90625-10.898438-7.710937-17.578125-7.746094h-34.320313c-6.628906.054688-12.9375 2.832032-17.460937 7.679688l-12.261719 13.199219v-29.414063c0-9.425781-7.640625-17.066406-17.066406-17.066406v-102.398438c-.019531-6.164062-3.371094-11.832031-8.765625-14.816406.128906-.742187.207031-1.496094.230469-2.25v-68.269531c0-1.144531-.117188-2.289063-.347656-3.414063 5.125-4.449218 5.75-12.179687 1.40625-17.398437l-29.214844-36.292969c-3.175782-3.953125-7.953125-6.285156-13.023438-6.355468-5.035156.046874-9.824218 2.191406-13.210937 5.921874l-31.34375 36.394532c-4.492188 5.085937-4.113281 12.828125.855469 17.449218-.285157 1.214844-.4375 2.453126-.453126 3.695313v68.269531c.027344.753906.101563 1.507813.230469 2.25-5.390625 2.984375-8.746093 8.652344-8.761719 14.816406v102.398438c-9.425781 0-17.066406 7.640625-17.066406 17.066406v221.867188c0 9.425781 7.640625 17.066406 17.066406 17.066406zm42.664063-17.066406v-34.132813h17.066406v34.132813zm76.800781 0v-162.132813h93.867188v162.132813zm24.746094-194.03125c1.28125-1.398438 3.082031-2.207032 4.976562-2.234375h34.320313c1.9375.019531 3.777344.851562 5.070313 2.292969l13.71875 14.773437h-71.839844zm-118.613281-232.636719h51.199219v68.269531h-51.199219zm26.804687-46.394531 23.628906 29.328125h-48.886718zm-35.335937 131.730468h68.265625v102.398438h-68.265625zm-17.066407 119.464844h102.398438v221.867188h-25.601562v-34.132813c0-9.425781-7.640626-17.066406-17.066407-17.066406h-17.066406c-9.425781 0-17.066406 7.640625-17.066406 17.066406v34.132813h-25.597657zm0 0"/><path d="m42.667969 119.464844h98.132812c21.207031 0 38.398438-17.191406 38.398438-38.398438 0-21.207031-17.191407-38.398437-38.398438-38.398437-1.496093 0-2.988281.089843-4.472656.273437-1.910156-22.597656-19.722656-40.585937-42.300781-42.722656s-43.445313 12.195312-49.558594 34.035156c-.597656-.027344-1.203125-.121094-1.800781-.121094-23.566407 0-42.667969 19.101563-42.667969 42.667969 0 23.5625 19.101562 42.664063 42.667969 42.664063zm6.449219-67.410156c.265624.074218.53125 0 .804687.058593.253906.089844.515625.164063.78125.222657.308594-.019532.613281-.058594.914063-.113282.554687 0 1.105468-.058594 1.648437-.167968.566406-.125 1.121094-.308594 1.644531-.554688.429688-.199219.839844-.433594 1.230469-.699219.507813-.34375.972656-.746093 1.382813-1.195312.316406-.34375.601562-.710938.851562-1.101563.347656-.515625.636719-1.066406.855469-1.648437.136719-.25.257812-.511719.367187-.777344.074219-.261719 0-.519531.058594-.78125.058594-.265625.195312-.515625.222656-.804687 1.132813-15.542969 14.136719-27.542969 29.722656-27.425782 16.492188 0 29.863282 13.371094 29.863282 29.867188 0 .851562-.175782 1.621094-.246094 2.441406-9.382812 6.351562-15.449219 16.550781-16.554688 27.824219-.058593.386719-.09375.773437-.101562 1.164062 0 .136719-.078125.253907-.078125.398438 0 4.714843 3.820313 8.535156 8.535156 8.535156h.085938c1.117187-.003906 2.226562-.226563 3.257812-.65625.257813-.113281.453125-.316406.699219-.453125.722656-.355469 1.390625-.8125 1.988281-1.347656.144531-.179688.277344-.363282.402344-.554688.582031-.632812 1.0625-1.347656 1.425781-2.125.074219-.179687.085938-.394531.152344-.582031.300781-.726563.5-1.488281.589844-2.269531.5625-7.394532 4.980468-13.945313 11.621094-17.246094 2.949218-1.546875 6.230468-2.347656 9.558593-2.328125 11.78125 0 21.332031 9.550781 21.332031 21.332031s-9.550781 21.332032-21.332031 21.332032h-98.132812c-9.953125.042968-19.027344-5.691407-23.265625-14.695313-4.238282-9.003906-2.875-19.648437 3.496094-27.292969 6.375-7.644531 16.597656-10.90625 26.21875-8.355468zm0 0"/><path d="m465.066406 93.867188c25.921875 0 46.933594-21.011719 46.933594-46.933594s-21.011719-46.933594-46.933594-46.933594-46.933594 21.011719-46.933594 46.933594c.027344 25.910156 21.023438 46.90625 46.933594 46.933594zm0-76.800782c16.496094 0 29.867188 13.371094 29.867188 29.867188s-13.371094 29.867187-29.867188 29.867187-29.867187-13.371093-29.867187-29.867187 13.371093-29.867188 29.867187-29.867188zm0 0"/><path d="m170.667969 238.933594c-4.714844 0-8.535157 3.820312-8.535157 8.53125v17.070312c0 4.710938 3.820313 8.53125 8.535157 8.53125 4.710937 0 8.53125-3.820312 8.53125-8.53125v-17.070312c0-4.710938-3.820313-8.53125-8.53125-8.53125zm0 0"/><path d="m204.800781 238.933594c-4.714843 0-8.535156 3.820312-8.535156 8.53125v17.070312c0 4.710938 3.820313 8.53125 8.535156 8.53125 4.710938 0 8.53125-3.820312 8.53125-8.53125v-17.070312c0-4.710938-3.820312-8.53125-8.53125-8.53125zm0 0"/><path d="m170.667969 290.132812c-4.714844 0-8.535157 3.820313-8.535157 8.535157v17.066406c0 4.710937 3.820313 8.53125 8.535157 8.53125 4.710937 0 8.53125-3.820313 8.53125-8.53125v-17.066406c0-4.714844-3.820313-8.535157-8.53125-8.535157zm0 0"/><path d="m204.800781 290.132812c-4.714843 0-8.535156 3.820313-8.535156 8.535157v17.066406c0 4.710937 3.820313 8.53125 8.535156 8.53125 4.710938 0 8.53125-3.820313 8.53125-8.53125v-17.066406c0-4.714844-3.820312-8.535157-8.53125-8.535157zm0 0"/><path d="m170.667969 341.332031c-4.714844 0-8.535157 3.820313-8.535157 8.535157v17.066406c0 4.710937 3.820313 8.53125 8.535157 8.53125 4.710937 0 8.53125-3.820313 8.53125-8.53125v-17.066406c0-4.714844-3.820313-8.535157-8.53125-8.535157zm0 0"/><path d="m204.800781 341.332031c-4.714843 0-8.535156 3.820313-8.535156 8.535157v17.066406c0 4.710937 3.820313 8.53125 8.535156 8.53125 4.710938 0 8.53125-3.820313 8.53125-8.53125v-17.066406c0-4.714844-3.820312-8.535157-8.53125-8.535157zm0 0"/><path d="m170.667969 392.535156c-4.714844 0-8.535157 3.820313-8.535157 8.53125v17.066406c0 4.714844 3.820313 8.535157 8.535157 8.535157 4.710937 0 8.53125-3.820313 8.53125-8.535157v-17.066406c0-4.710937-3.820313-8.53125-8.53125-8.53125zm0 0"/><path d="m204.800781 392.535156c-4.714843 0-8.535156 3.820313-8.535156 8.53125v17.066406c0 4.714844 3.820313 8.535157 8.535156 8.535157 4.710938 0 8.53125-3.820313 8.53125-8.535157v-17.066406c0-4.710937-3.820312-8.53125-8.53125-8.53125zm0 0"/><path d="m170.667969 443.734375c-4.714844 0-8.535157 3.820313-8.535157 8.53125v17.066406c0 4.714844 3.820313 8.535157 8.535157 8.535157 4.710937 0 8.53125-3.820313 8.53125-8.535157v-17.066406c0-4.710937-3.820313-8.53125-8.53125-8.53125zm0 0"/><path d="m204.800781 443.734375c-4.714843 0-8.535156 3.820313-8.535156 8.53125v17.066406c0 4.714844 3.820313 8.535157 8.535156 8.535157 4.710938 0 8.53125-3.820313 8.53125-8.535157v-17.066406c0-4.710937-3.820312-8.53125-8.53125-8.53125zm0 0"/><path d="m307.199219 324.265625c4.714843 0 8.535156-3.820313 8.535156-8.53125v-17.066406c0-4.714844-3.820313-8.535157-8.535156-8.535157-4.710938 0-8.53125 3.820313-8.53125 8.535157v17.066406c0 4.710937 3.820312 8.53125 8.53125 8.53125zm0 0"/><path d="m332.800781 204.800781c-4.714843 0-8.535156 3.820313-8.535156 8.53125v17.066407c0 4.714843 3.820313 8.535156 8.535156 8.535156 4.710938 0 8.53125-3.820313 8.53125-8.535156v-17.066407c0-4.710937-3.820312-8.53125-8.53125-8.53125zm0 0"/><path d="m332.800781 85.332031c-4.714843 0-8.535156 3.820313-8.535156 8.535157v17.066406c0 4.710937 3.820313 8.53125 8.535156 8.53125 4.710938 0 8.53125-3.820313 8.53125-8.53125v-17.066406c0-4.714844-3.820312-8.535157-8.53125-8.535157zm0 0"/><path d="m358.398438 324.265625c4.714843 0 8.535156-3.820313 8.535156-8.53125v-17.066406c0-4.714844-3.820313-8.535157-8.535156-8.535157-4.710938 0-8.53125 3.820313-8.53125 8.535157v17.066406c0 4.710937 3.820312 8.53125 8.53125 8.53125zm0 0"/><path d="m307.199219 375.464844c4.714843 0 8.535156-3.820313 8.535156-8.53125v-17.066406c0-4.714844-3.820313-8.535157-8.535156-8.535157-4.710938 0-8.53125 3.820313-8.53125 8.535157v17.066406c0 4.710937 3.820312 8.53125 8.53125 8.53125zm0 0"/><path d="m358.398438 375.464844c4.714843 0 8.535156-3.820313 8.535156-8.53125v-17.066406c0-4.714844-3.820313-8.535157-8.535156-8.535157-4.710938 0-8.53125 3.820313-8.53125 8.535157v17.066406c0 4.710937 3.820312 8.53125 8.53125 8.53125zm0 0"/><path d="m307.199219 426.667969c4.714843 0 8.535156-3.820313 8.535156-8.535157v-17.066406c0-4.710937-3.820313-8.53125-8.535156-8.53125-4.710938 0-8.53125 3.820313-8.53125 8.53125v17.066406c0 4.714844 3.820312 8.535157 8.53125 8.535157zm0 0"/><path d="m358.398438 426.667969c4.714843 0 8.535156-3.820313 8.535156-8.535157v-17.066406c0-4.710937-3.820313-8.53125-8.535156-8.53125-4.710938 0-8.53125 3.820313-8.53125 8.53125v17.066406c0 4.714844 3.820312 8.535157 8.53125 8.535157zm0 0"/><path d="m435.199219 349.867188h-8.53125c-4.714844 0-8.535157 3.820312-8.535157 8.53125 0 4.714843 3.820313 8.535156 8.535157 8.535156h8.53125c4.714843 0 8.535156-3.820313 8.535156-8.535156 0-4.710938-3.820313-8.53125-8.535156-8.53125zm0 0"/><path d="m435.199219 384h-8.53125c-4.714844 0-8.535157 3.820312-8.535157 8.535156 0 4.710938 3.820313 8.53125 8.535157 8.53125h8.53125c4.714843 0 8.535156-3.820312 8.535156-8.53125 0-4.714844-3.820313-8.535156-8.535156-8.535156zm0 0"/><path d="m435.199219 418.132812h-8.53125c-4.714844 0-8.535157 3.820313-8.535157 8.535157 0 4.710937 3.820313 8.53125 8.535157 8.53125h8.53125c4.714843 0 8.535156-3.820313 8.535156-8.53125 0-4.714844-3.820313-8.535157-8.535156-8.535157zm0 0"/><path d="m435.199219 452.265625h-8.53125c-4.714844 0-8.535157 3.820313-8.535157 8.535156 0 4.710938 3.820313 8.53125 8.535157 8.53125h8.53125c4.714843 0 8.535156-3.820312 8.535156-8.53125 0-4.714843-3.820313-8.535156-8.535156-8.535156zm0 0"/><path d="m68.265625 358.398438h-24.746094c-4.710937 0-8.53125 3.820312-8.53125 8.535156 0 4.710937 3.820313 8.53125 8.53125 8.53125h24.746094c4.714844 0 8.535156-3.820313 8.535156-8.53125 0-4.714844-3.820312-8.535156-8.535156-8.535156zm0 0"/><path d="m68.265625 324.265625h-24.746094c-4.710937 0-8.53125 3.820313-8.53125 8.535156 0 4.710938 3.820313 8.53125 8.53125 8.53125h24.746094c4.714844 0 8.535156-3.820312 8.535156-8.53125 0-4.714843-3.820312-8.535156-8.535156-8.535156zm0 0"/><path d="m68.265625 290.132812h-24.746094c-4.710937 0-8.53125 3.820313-8.53125 8.535157 0 4.710937 3.820313 8.53125 8.53125 8.53125h24.746094c4.714844 0 8.535156-3.820313 8.535156-8.53125 0-4.714844-3.820312-8.535157-8.535156-8.535157zm0 0"/><path d="m68.265625 392.535156h-24.746094c-4.710937 0-8.53125 3.820313-8.53125 8.53125 0 4.714844 3.820313 8.535156 8.53125 8.535156h24.746094c4.714844 0 8.535156-3.820312 8.535156-8.535156 0-4.710937-3.820312-8.53125-8.535156-8.53125zm0 0"/><path d="m68.265625 426.667969h-24.746094c-4.710937 0-8.53125 3.820312-8.53125 8.53125 0 4.714843 3.820313 8.535156 8.53125 8.535156h24.746094c4.714844 0 8.535156-3.820313 8.535156-8.535156 0-4.710938-3.820312-8.53125-8.535156-8.53125zm0 0"/><path d="m68.265625 460.800781h-24.746094c-4.710937 0-8.53125 3.820313-8.53125 8.53125 0 4.714844 3.820313 8.535157 8.53125 8.535157h24.746094c4.714844 0 8.535156-3.820313 8.535156-8.535157 0-4.710937-3.820312-8.53125-8.535156-8.53125zm0 0"/><path d="m475.390625 352.339844c-3.421875-3.15625-8.695313-3.15625-12.117187 0-.789063.804687-1.398438 1.761718-1.789063 2.816406-.4375 1.027344-.671875 2.128906-.683594 3.242188.03125 2.261718.914063 4.425781 2.472657 6.058593.816406.773438 1.773437 1.382813 2.816406 1.792969 1.027344.4375 2.128906.667969 3.242187.683594 2.261719-.035156 4.421875-.917969 6.058594-2.476563.753906-.828125 1.359375-1.78125 1.792969-2.8125.910156-2.066406.910156-4.421875 0-6.488281-.390625-1.054688-1.003906-2.011719-1.792969-2.816406zm0 0"/><path d="m474.113281 385.449219c-.476562-.320313-.992187-.578125-1.539062-.765625-.480469-.246094-1-.421875-1.535157-.511719-2.808593-.574219-5.722656.289063-7.765624 2.304687-.769532.8125-1.378907 1.769532-1.789063 2.8125-.4375 1.027344-.671875 2.128907-.683594 3.246094.019531.570313.074219 1.140625.167969 1.703125.09375.535157.265625 1.054688.515625 1.539063.183594.542968.441406 1.058594.765625 1.535156l1.023438 1.28125c1.636718 1.554688 3.800781 2.441406 6.058593 2.472656.574219-.019531 1.144531-.074218 1.707031-.171875.535157-.089843 1.054688-.265625 1.535157-.511719.546875-.183593 1.0625-.445312 1.539062-.765624l1.277344-1.023438 1.023437-1.28125c.324219-.476562.582032-.992188.769532-1.535156.246094-.484375.417968-1.003906.511718-1.539063.09375-.5625.152344-1.132812.171876-1.703125-.035157-2.261718-.917969-4.425781-2.476563-6.058594-.402344-.367187-.832031-.710937-1.277344-1.027343zm0 0"/><path d="m474.113281 419.585938c-.476562-.324219-.992187-.582032-1.539062-.769532-.480469-.246094-1-.417968-1.535157-.511718-2.808593-.558594-5.714843.300781-7.765624 2.304687-3.3125 3.339844-3.296876 8.730469.035156 12.050781 3.328125 3.320313 8.71875 3.320313 12.050781 0 3.332031-3.320312 3.34375-8.710937.03125-12.050781-.402344-.367187-.832031-.710937-1.277344-1.023437zm0 0"/><path d="m463.273438 454.742188c-3.3125 3.339843-3.296876 8.730468.035156 12.050781 3.328125 3.320312 8.71875 3.320312 12.050781 0 3.332031-3.320313 3.34375-8.710938.03125-12.050781-3.429687-3.136719-8.6875-3.136719-12.117187 0zm0 0"/><path d="m110.933594 298.667969c0 4.710937-3.820313 8.53125-8.535156 8.53125-4.710938 0-8.53125-3.820313-8.53125-8.53125 0-4.714844 3.820312-8.535157 8.53125-8.535157 4.714843 0 8.535156 3.820313 8.535156 8.535157zm0 0"/><path d="m341.332031 179.199219c0 4.714843-3.820312 8.535156-8.53125 8.535156-4.714843 0-8.535156-3.820313-8.535156-8.535156 0-4.710938 3.820313-8.53125 8.535156-8.53125 4.710938 0 8.53125 3.820312 8.53125 8.53125zm0 0"/><path d="m110.933594 332.800781c0 4.710938-3.820313 8.53125-8.535156 8.53125-4.710938 0-8.53125-3.820312-8.53125-8.53125 0-4.714843 3.820312-8.535156 8.53125-8.535156 4.714843 0 8.535156 3.820313 8.535156 8.535156zm0 0"/><path d="m110.933594 366.933594c0 4.710937-3.820313 8.53125-8.535156 8.53125-4.710938 0-8.53125-3.820313-8.53125-8.53125 0-4.714844 3.820312-8.535156 8.53125-8.535156 4.714843 0 8.535156 3.820312 8.535156 8.535156zm0 0"/><path d="m110.933594 401.066406c0 4.714844-3.820313 8.535156-8.535156 8.535156-4.710938 0-8.53125-3.820312-8.53125-8.535156 0-4.710937 3.820312-8.53125 8.53125-8.53125 4.714843 0 8.535156 3.820313 8.535156 8.53125zm0 0"/><path d="m110.933594 435.199219c0 4.714843-3.820313 8.535156-8.535156 8.535156-4.710938 0-8.53125-3.820313-8.53125-8.535156 0-4.710938 3.820312-8.53125 8.53125-8.53125 4.714843 0 8.535156 3.820312 8.535156 8.53125zm0 0"/><path d="m110.933594 469.332031c0 4.714844-3.820313 8.535157-8.535156 8.535157-4.710938 0-8.53125-3.820313-8.53125-8.535157 0-4.710937 3.820312-8.53125 8.53125-8.53125 4.714843 0 8.535156 3.820313 8.535156 8.53125zm0 0"/></svg>