<?xml version="1.0" encoding="iso-8859-1"?>
<!-- Generator: Adobe Illustrator 19.0.0, SVG Export Plug-In . SVG Version: 6.00 Build 0)  -->
<svg version="1.1" id="Capa_1" xmlns="http://www.w3.org/2000/svg" xmlns:xlink="http://www.w3.org/1999/xlink" x="0px" y="0px"
	 viewBox="0 0 512.005 512.005" style="enable-background:new 0 0 512.005 512.005;" xml:space="preserve">
<g>
	<g transform="translate(1 1)">
		<path style="fill:#BDC3C7;" d="M144.496,58.736l-4.949,7.339l-41.557,60.928h-56.32c-18.851,0-34.133-15.282-34.133-34.133
			s15.282-34.133,34.133-34.133c-0.002-1.653,0.083-3.305,0.256-4.949c0.115-1.461,0.315-2.914,0.597-4.352
			c0.101-0.691,0.244-1.374,0.427-2.048c0.171-1.024,0.512-2.048,0.768-3.072c0.341-1.195,0.768-2.304,1.195-3.413
			c0.341-0.939,0.683-1.877,1.109-2.816c0.597-1.28,1.195-2.56,1.792-3.754c0.085-0.085,0.171-0.171,0.171-0.256
			c1.386-2.448,2.955-4.787,4.693-6.997c0.768-0.939,1.536-1.877,2.389-2.816l0.512-0.512c0.354-0.44,0.755-0.841,1.195-1.195
			c0.597-0.683,1.195-1.195,1.792-1.792c0.853-0.768,1.707-1.451,2.56-2.133c0.341-0.256,0.768-0.597,1.109-0.853
			c0.768-0.597,1.621-1.195,2.56-1.792c2.283-1.616,4.746-2.962,7.339-4.011l3.84-1.536c1.365-0.427,2.731-0.853,4.096-1.195
			l3.072-0.768c1.707-0.341,3.328-0.512,5.035-0.683c1.559-0.173,3.126-0.258,4.694-0.256c28.268,0.022,51.178,22.932,51.2,51.2
			H144.496z"/>
		<path style="fill:#A4C2F7;" d="M144.496,58.736l-4.949,7.339l-41.557,60.928h-56.32c-18.851,0-34.133-15.282-34.133-34.133
			s15.282-34.133,34.133-34.133c-0.002-1.653,0.083-3.305,0.256-4.949c0.115-1.461,0.315-2.914,0.597-4.352
			c0.101-0.691,0.244-1.374,0.427-2.048c0.171-1.024,0.512-2.048,0.768-3.072c0.341-1.195,0.768-2.304,1.195-3.413
			c0.341-0.939,0.683-1.877,1.109-2.816c0.597-1.28,1.195-2.56,1.792-3.754c0.085-0.085,0.171-0.171,0.171-0.256
			c1.386-2.448,2.955-4.787,4.693-6.997c0.768-0.939,1.536-1.877,2.389-2.816l0.512-0.512c0.354-0.44,0.755-0.841,1.195-1.195
			c0.597-0.683,1.195-1.195,1.792-1.792c0.853-0.768,1.707-1.451,2.56-2.133c0.341-0.256,0.768-0.597,1.109-0.853
			c0.768-0.597,1.621-1.195,2.56-1.792c2.341-1.52,4.795-2.861,7.339-4.011l3.84-1.536c1.365-0.427,2.731-0.853,4.096-1.195
			l3.072-0.768c1.707-0.341,3.328-0.512,5.035-0.683c1.559-0.173,3.126-0.258,4.694-0.256c28.268,0.022,51.178,22.932,51.2,51.2
			H144.496z"/>
		<g>
			<path style="fill:#E3E7F2;" d="M139.547,66.075l-41.557,60.928h-56.32c-18.851,0-34.133-15.282-34.133-34.133
				s15.282-34.133,34.133-34.133c-0.002-1.653,0.083-3.305,0.256-4.949c0.115-1.461,0.315-2.914,0.597-4.352
				c0.101-0.691,0.244-1.374,0.427-2.048c0.171-1.024,0.512-2.048,0.768-3.072c0.341-1.195,0.768-2.304,1.195-3.413
				c0.341-0.939,0.683-1.877,1.109-2.816c0.597-1.28,1.195-2.56,1.792-3.754c0.085-0.085,0.171-0.171,0.171-0.256
				c1.386-2.448,2.955-4.787,4.693-6.997c0.768-0.939,1.536-1.877,2.389-2.816l0.512-0.512c0.354-0.44,0.755-0.841,1.195-1.195
				c0.597-0.683,1.195-1.195,1.792-1.792c0.853-0.768,1.707-1.451,2.56-2.133c0.341-0.256,0.768-0.597,1.109-0.853
				c0.768-0.597,1.621-1.195,2.56-1.792c2.341-1.52,4.795-2.861,7.339-4.011l3.84-1.536c1.365-0.427,2.731-0.853,4.096-1.195
				c22.58,5.824,38.369,26.174,38.401,49.493C126.123,58.725,133.555,61.312,139.547,66.075z"/>
			<rect x="135.536" y="340.336" style="fill:#E3E7F2;" width="34.133" height="162.133"/>
		</g>
		<path style="fill:#A4C2F7;" d="M243.397,268.741c13.369-13.129,20.876-31.097,20.821-49.835
			c0.51-37.525-29.463-68.376-66.987-68.949h-0.256c7.427-9.959,11.438-22.051,11.435-34.475
			c0.415-31.256-24.553-56.949-55.808-57.429c-4.32-0.029-8.624,0.516-12.8,1.621c25.496,6.451,43.266,29.51,43.008,55.808
			c0.003,12.424-4.008,24.516-11.435,34.475h0.256c37.524,0.574,67.497,31.424,66.987,68.949
			c0.055,18.738-7.452,36.705-20.821,49.835c34.491,12.033,56.645,45.679,54.071,82.118s-29.239,66.636-65.079,73.701
			c4.224,0.757,8.509,1.129,12.8,1.109c43.747-0.663,78.689-36.636,78.08-80.384C297.973,310.738,276.099,279.887,243.397,268.741z"
			/>
		<path style="fill:#D4E1F4;" d="M272.069,345.285c0.428,38.789-27.129,72.254-65.28,79.275
			c-22.824-3.994-42.685-17.944-54.187-38.059c-3.532,6.049-7.835,11.614-12.8,16.555c-14.328,14.456-33.833,22.596-54.187,22.613
			c-4.291,0.019-8.576-0.352-12.8-1.109c-35.84-7.065-62.505-37.262-65.079-73.701s19.58-70.085,54.071-82.118
			c-13.369-13.129-20.876-31.097-20.821-49.835c-0.51-37.525,29.463-68.376,66.987-68.949h0.256
			c-7.427-9.959-11.438-22.051-11.435-34.475c-0.258-26.298,17.512-49.357,43.008-55.808c25.496,6.451,43.266,29.51,43.008,55.808
			c0.003,12.424-4.008,24.516-11.435,34.475h0.256c37.524,0.574,67.497,31.424,66.987,68.949
			c0.055,18.738-7.452,36.705-20.821,49.835C250.499,279.887,272.373,310.738,272.069,345.285z"/>
		<path style="fill:#A4C2F7;" d="M502.469,169.669c0.003,9.053-3.593,17.737-9.995,24.139c-6.402,6.402-15.085,9.997-24.139,9.995
			h-102.4c-18.851,0-34.133-15.282-34.133-34.133s15.282-34.133,34.133-34.133c0.031-23.319,15.82-43.669,38.4-49.493
			c4.172-1.134,8.477-1.708,12.8-1.707c28.268,0.022,51.178,22.932,51.2,51.2c9.054-0.003,17.737,3.593,24.139,9.995
			C498.877,151.932,502.472,160.616,502.469,169.669z"/>
		<path style="fill:#E3E7F2;" d="M476.869,169.669c0.002,9.053-3.593,17.737-9.995,24.139c-6.402,6.402-15.085,9.997-24.139,9.995
			h-76.8c-18.851,0-34.133-15.282-34.133-34.133s15.282-34.133,34.133-34.133c0.031-23.319,15.82-43.669,38.4-49.493
			c22.58,5.824,38.369,26.174,38.4,49.493c9.054-0.003,17.737,3.593,24.139,9.995S476.872,160.616,476.869,169.669z"/>
		<g>
			<path style="fill:#FFFFFF;" d="M7.536,92.869c-0.003-9.054,3.593-17.737,9.995-24.139c6.402-6.402,15.085-9.997,24.139-9.995
				c-0.002-1.653,0.083-3.305,0.256-4.949c0.115-1.461,0.315-2.914,0.597-4.352c0.101-0.691,0.244-1.374,0.427-2.048
				c0.171-1.024,0.512-2.048,0.768-3.072c0.341-1.195,0.768-2.304,1.195-3.413c0.341-0.939,0.683-1.877,1.109-2.816
				c0.597-1.28,1.195-2.56,1.792-3.754c0.085-0.085,0.171-0.171,0.171-0.256c1.386-2.448,2.955-4.787,4.693-6.997
				c0.768-0.939,1.536-1.877,2.389-2.816l0.512-0.512c0.354-0.44,0.755-0.841,1.195-1.195c0.597-0.683,1.195-1.195,1.792-1.792
				c0.853-0.768,1.707-1.451,2.56-2.133c0.341-0.256,0.768-0.597,1.109-0.853c0.768-0.597,1.621-1.195,2.56-1.792
				c2.283-1.616,4.746-2.962,7.339-4.011l3.84-1.536c1.365-0.427,2.731-0.853,4.096-1.195l3.072-0.768
				c1.707-0.341,3.328-0.512,5.035-0.683c1.559-0.173,3.126-0.258,4.694-0.256c4.323-0.001,8.628,0.573,12.8,1.707
				c-1.365,0.341-2.731,0.768-4.096,1.195l-3.84,1.536c-2.593,1.049-5.056,2.395-7.339,4.011c-0.939,0.597-1.792,1.195-2.56,1.792
				c-0.341,0.256-0.768,0.597-1.109,0.853c-0.853,0.683-1.707,1.365-2.56,2.133c-0.597,0.597-1.194,1.109-1.792,1.792
				c-0.44,0.354-0.841,0.755-1.195,1.195l-0.512,0.512c-0.853,0.939-1.621,1.877-2.389,2.816c-1.739,2.211-3.308,4.55-4.693,6.997
				c0,0.085-0.085,0.171-0.171,0.256c-0.597,1.195-1.195,2.475-1.792,3.754c-0.427,0.939-0.768,1.877-1.109,2.816
				c-0.427,1.109-0.853,2.219-1.195,3.413c-0.256,1.024-0.597,2.048-0.768,3.072c-0.183,0.674-0.326,1.357-0.427,2.048
				c-0.283,1.438-0.482,2.891-0.597,4.352c-0.173,1.644-0.258,3.296-0.256,4.95c-18.851,0-34.133,15.282-34.133,34.133
				s15.282,34.133,34.133,34.133h-25.6c-9.053,0.002-17.737-3.593-24.139-9.995S7.534,101.923,7.536,92.869z"/>
			<path style="fill:#FFFFFF;" d="M109.934,154.383c-21.708,8.897-37.497,28.1-42.031,51.118s2.793,46.775,19.505,63.24
				c-34.461,12.03-56.609,45.635-54.077,82.047c2.533,36.413,29.119,66.627,64.914,73.771c-4.166,0.761-8.394,1.132-12.629,1.109
				c-4.291,0.019-8.576-0.352-12.8-1.109c-35.84-7.065-62.505-37.262-65.079-73.701s19.58-70.085,54.071-82.118
				c-13.369-13.129-20.876-31.097-20.821-49.835c-0.51-37.525,29.463-68.376,66.987-68.949h0.256L109.934,154.383z"/>
			<path style="fill:#FFFFFF;" d="M429.936,86.043c-22.58,5.824-38.369,26.174-38.4,49.493c-18.851,0-34.133,15.282-34.133,34.133
				s15.282,34.133,34.133,34.133h-25.6c-18.851,0-34.133-15.282-34.133-34.133s15.282-34.133,34.133-34.133
				c0.031-23.319,15.82-43.669,38.4-49.493C412.718,83.767,421.554,83.767,429.936,86.043z"/>
		</g>
	</g>
	<g>
		<path style="fill:#FFFFFF;" d="M86.649,435.203c-20.752-0.132-40.759-7.747-56.347-21.446
			c-15.475-13.656-25.727-32.262-29.004-52.638c-0.789-4.916-1.222-9.882-1.295-14.86h17.067c0.073,4.052,0.43,8.093,1.07,12.094
			c2.637,16.486,10.923,31.543,23.44,42.593c12.469,10.96,28.469,17.062,45.07,17.19V435.203z"/>
		<g>
			<path style="fill:#428DFF;" d="M28.358,406.797c0.583-0.097,1.149-0.275,1.682-0.529c0.524-0.166,1.018-0.414,1.465-0.734
				c0.466-0.334,0.907-0.7,1.32-1.097c1.515-1.62,2.433-3.707,2.604-5.919c0.068-1.064-0.06-2.131-0.378-3.149
				c-1.004-2.96-3.592-5.099-6.687-5.529c-1.109-0.107-2.228-0.029-3.312,0.228c-1.1,0.228-2.149,0.653-3.098,1.256
				c-1.887,1.256-3.157,3.248-3.5,5.489c-0.245,2.434,0.474,4.866,2.001,6.777c1.6,1.828,3.815,3.006,6.225,3.311L28.358,406.797z"
				/>
			<path style="fill:#428DFF;" d="M503.469,401.069c4.713,0,8.533-3.82,8.533-8.533s-3.821-8.533-8.533-8.533h-8.533
				c0-4.713-3.82-8.533-8.533-8.533s-8.533,3.821-8.533,8.533H341.336v-8.533c0-4.713-3.82-8.533-8.533-8.533
				s-8.533,3.82-8.533,8.533v8.533h-8.533c-4.713,0-8.533,3.821-8.533,8.533s3.82,8.533,8.533,8.533h8.533v25.6h-8.533
				c-4.713,0-8.533,3.82-8.533,8.533s3.82,8.533,8.533,8.533h8.533v8.533h-8.533c-4.713,0-8.533,3.82-8.533,8.533
				s3.82,8.533,8.533,8.533h8.533v25.6H179.203v-70.6c12.623,7.113,26.865,10.856,41.354,10.867
				c48.46-0.698,87.215-40.48,86.646-88.942c0.263-33.693-18.552-64.638-48.588-79.908c9.888-13.462,15.186-29.747,15.113-46.45
				c0.297-36.863-25.562-68.771-61.687-76.117c9.141-20.158,7.57-43.556-4.185-62.311s-32.126-30.369-54.253-30.931
				c-0.253,0-0.497,0.036-0.749,0.039C148.31,21.217,122.864-0.34,93.15,0.007S38.498,22.496,34.64,51.961
				C13.031,56.102-1.886,75.996,0.194,97.9s20.473,38.635,42.476,38.636H92.41c0.77,2.454,1.683,4.861,2.734,7.208
				c-36.124,7.371-61.97,39.291-61.667,76.158c-0.073,16.703,5.225,32.988,15.113,46.45c-30.035,15.27-48.85,46.214-48.587,79.906
				v0.003c0.073,4.977,0.506,9.943,1.295,14.857c0.471,3.105,1.136,6.178,1.993,9.199c0.539,2.303,2.041,4.263,4.124,5.382
				c2.083,1.119,4.547,1.29,6.765,0.468c4.167-1.592,6.538-5.997,5.573-10.352c-0.701-2.45-1.24-4.943-1.615-7.464
				c-0.639-4.001-0.997-8.042-1.07-12.093c-0.361-30.873,19.153-58.484,48.375-68.449c2.825-0.931,4.961-3.266,5.637-6.163
				s-0.207-5.936-2.328-8.021c-11.73-11.515-18.298-27.288-18.208-43.725c-0.558-32.561,25.193-59.507,57.746-60.425
				c3.523,0.311,6.89-1.513,8.554-4.634c1.455-2.868,1.17-6.311-0.737-8.9c-6.325-8.508-9.749-18.823-9.767-29.425
				c-0.416-26.541,20.722-48.416,47.262-48.908c26.541,0.492,47.679,22.366,47.262,48.908c-0.018,10.602-3.442,20.917-9.767,29.425
				c-1.868,2.611-2.102,6.052-0.604,8.892c1.508,2.881,4.494,4.683,7.746,4.675c32.789,0.59,58.918,27.601,58.421,60.392
				c0.09,16.437-6.479,32.21-18.208,43.725c-2.122,2.085-3.004,5.124-2.328,8.021c0.676,2.897,2.812,5.232,5.637,6.163
				c32.774,11.46,52.753,44.622,47.565,78.952c-5.187,34.33-34.072,60.109-68.769,61.373c-23.267-0.086-44.891-12.007-57.385-31.636
				l56.197-56.198c3.281-3.341,3.256-8.701-0.054-12.012c-3.311-3.311-8.671-3.335-12.012-0.054l-45.167,45.166v-86.8l40.166-40.166
				c3.296-3.338,3.28-8.711-0.038-12.029c-3.317-3.317-8.69-3.334-12.029-0.038l-28.1,28.1v-39.133c0-4.713-3.82-8.533-8.533-8.533
				s-8.533,3.821-8.533,8.533v39.133l-28.1-28.1c-3.338-3.296-8.711-3.279-12.029,0.038s-3.334,8.691-0.038,12.029l40.166,40.167
				v86.8l-45.167-45.167c-3.338-3.296-8.711-3.279-12.029,0.038s-3.334,8.691-0.038,12.029l56.197,56.197
				c-18.321,29.176-55.658,39.896-86.666,24.883c-4.094-1.687-8.808-0.177-11.16,3.574c-1.244,2.029-1.544,4.499-0.821,6.766
				c0.723,2.268,2.398,4.108,4.587,5.041c11.439,5.523,23.972,8.406,36.675,8.438h0.001c14.489-0.011,28.731-3.753,41.354-10.867
				v70.6H8.536c-4.713,0-8.533,3.821-8.533,8.533c0,4.713,3.821,8.533,8.533,8.533h494.933c4.713,0,8.533-3.82,8.533-8.533
				c0-4.713-3.821-8.533-8.533-8.533h-8.533v-25.6h8.533c4.713,0,8.533-3.82,8.533-8.533s-3.821-8.533-8.533-8.533h-8.533v-8.533
				h8.533c4.713,0,8.533-3.82,8.533-8.533s-3.821-8.533-8.533-8.533h-8.533v-25.6H503.469z M89.274,116.519
				c0,0.991,0.112,1.965,0.156,2.95h-46.76c-14.138,0-25.6-11.462-25.6-25.6s11.462-25.6,25.6-25.6
				c2.263,0.001,4.434-0.898,6.035-2.499s2.499-3.771,2.499-6.035c-0.043-22.27,17.079-40.812,39.282-42.538
				c22.203-1.727,41.986,13.946,45.386,35.955C108.04,61.654,89.093,87.42,89.274,116.519z M145.069,494.936v-83.145
				c3.058-2.848,5.91-5.91,8.533-9.163c2.624,3.253,5.475,6.315,8.533,9.162v83.146H145.069z M477.869,494.936H341.336v-25.6
				h136.533V494.936z M477.869,452.269H341.336v-8.533h136.533V452.269z M477.869,426.669H341.336v-25.6h136.533V426.669z"/>
			<path style="fill:#428DFF;" d="M477.365,128.761c-3.905-29.73-29.244-51.958-59.229-51.958
				c-29.985,0-55.324,22.228-59.229,51.958c-21.609,4.141-36.526,24.035-34.447,45.939c2.079,21.904,20.473,38.635,42.476,38.636
				h102.4c22.002-0.001,40.396-16.732,42.476-38.636C513.891,152.796,498.974,132.902,477.365,128.761z M469.336,196.269h-102.4
				c-14.138,0-25.6-11.462-25.6-25.6c0-14.139,11.462-25.6,25.6-25.6c2.263,0.001,4.434-0.898,6.035-2.499
				c1.6-1.6,2.499-3.771,2.499-6.035c0-23.564,19.103-42.667,42.667-42.667c23.564,0,42.667,19.103,42.667,42.667
				c-0.001,2.263,0.898,4.434,2.499,6.035c1.6,1.6,3.771,2.499,6.035,2.499c14.138,0,25.6,11.462,25.6,25.6
				C494.936,184.808,483.475,196.269,469.336,196.269z"/>
		</g>
	</g>
</g>
<g>
</g>
<g>
</g>
<g>
</g>
<g>
</g>
<g>
</g>
<g>
</g>
<g>
</g>
<g>
</g>
<g>
</g>
<g>
</g>
<g>
</g>
<g>
</g>
<g>
</g>
<g>
</g>
<g>
</g>
</svg>
